<svg width="140" height="100" viewBox="0 0 140 100" fill="none" xmlns="http://www.w3.org/2000/svg">
<g clip-path="url(#clip0_44_496)">
<path d="M30.3279 73.6699L55.5214 51.342L53.1334 75.1027L30.8055 85.4906C30.8055 83.222 31.0443 77.6101 31.0443 76.2967C31.0443 75.5803 30.6861 75.2221 30.3279 75.2221V73.6699Z" fill="#323233"/>
<path d="M56.5959 79.8789V70.4463H83.1028L83.2222 80.1177C82.1715 81.455 78.7248 82.1874 77.1328 82.3864C73.8294 82.4262 66.5301 82.4819 63.76 82.3864C60.9899 82.2908 57.8298 80.6749 56.5959 79.8789Z" fill="#BCBCBC"/>
<path d="M83.1024 70.4463L56.5955 70.8045L56.3567 33.6709C56.3567 33.6709 64.4997 32.9341 69.7295 32.9545C75.0086 32.9751 83.4606 33.6709 83.4606 33.6709L83.1024 70.4463Z" fill="#BCBCBC"/>
<path d="M52.5364 55.5212L52.8946 70.8044L56.7154 72.2372C57.1134 60.6156 57.8855 37.0858 57.79 35.9395C57.6945 34.7933 56.7154 33.9495 56.2378 33.6709C55.1871 33.9575 54.9244 37.3723 54.9244 39.0439L55.8796 39.9991L54.9244 51.8198L52.5364 55.5212Z" fill="#323233"/>
<path d="M52.8945 70.8044L56.7153 72.2372L56.5959 79.8789C54.8766 79.4013 53.4915 76.5755 53.0139 75.2223L52.8945 70.8044Z" fill="#3E3E40"/>
<path d="M21.2534 77.8492V66.3867C24.2145 69.1776 28.5368 67.5496 30.3279 66.3867V77.8492H21.2534Z" fill="#494949"/>
<path d="M21.4921 93.4905L20.6562 87.8787L30.6859 88.1175L29.7307 93.4905C29.4919 94.3263 28.274 95.974 25.3129 95.8785C22.3517 95.783 21.5319 94.2467 21.4921 93.4905Z" fill="#494949"/>
<path d="M25.552 77.6102C21.6356 77.5147 21.2535 76.058 21.2535 75.3416C20.4894 75.4371 20.3381 75.9386 20.2983 76.1774L20.6565 87.8786C24.1908 89.789 28.8156 88.8338 30.6862 88.1174L31.1638 76.1774C31.0444 75.3416 30.6066 75.2222 30.328 75.2222C30.4076 76.058 29.4683 77.7057 25.552 77.6102Z" fill="#323233"/>
<ellipse cx="25.7906" cy="66.2674" rx="4.53722" ry="2.02981" fill="#333333"/>
<path d="M109.251 73.6699L84.0577 51.342L86.4457 75.1027L108.774 85.4906C108.774 83.222 108.415 77.4907 108.415 76.1773C108.415 75.4609 108.893 75.2221 109.251 75.2221V73.6699Z" fill="#323233"/>
<path d="M118.206 77.8492V66.3867C115.245 69.1776 110.923 67.5496 109.132 66.3867V77.8492H118.206Z" fill="#494949"/>
<path d="M117.967 93.4905L118.803 87.8787L108.774 88.1175L109.729 93.4905C109.968 94.3263 111.185 95.974 114.147 95.8785C117.108 95.783 117.928 94.2467 117.967 93.4905Z" fill="#494949"/>
<path d="M113.908 77.6102C117.825 77.5147 118.207 76.058 118.207 75.3416C118.971 75.4371 119.122 75.9386 119.162 76.1774L118.804 87.8786C115.269 89.789 110.645 88.8338 108.774 88.1174L108.296 76.1774C108.416 75.3416 108.854 75.2222 109.132 75.2222C109.053 76.058 109.992 77.7057 113.908 77.6102Z" fill="#323233"/>
<ellipse rx="4.53722" ry="2.02981" transform="matrix(-1 0 0 1 113.669 66.2674)" fill="#333333"/>
<path d="M25.7905 33.6709V22.2085C28.7517 24.9994 33.074 23.3714 34.865 22.2085V33.6709H25.7905Z" fill="#494949"/>
<path d="M26.0294 49.3125L25.1936 43.7007L35.2232 43.9395L34.268 49.3125C34.0292 50.1483 32.8114 51.796 29.8502 51.7005C26.8891 51.605 26.0692 50.0687 26.0294 49.3125Z" fill="#494949"/>
<path d="M30.0888 33.4322C26.1725 33.3367 25.7904 31.88 25.7904 31.1636C25.0262 31.2591 24.875 31.7606 24.8352 31.9994L25.1934 43.7006C28.7277 45.611 33.3524 44.6558 35.223 43.9394L35.7006 31.9994C35.5812 31.1636 35.1434 31.0442 34.8648 31.0442C34.9444 31.88 34.0052 33.5277 30.0888 33.4322Z" fill="#323233"/>
<ellipse cx="30.3277" cy="22.0891" rx="4.53722" ry="2.02981" fill="#333333"/>
<path d="M86.685 70.3269L83.103 72.2373L83.2224 80.1177C84.9418 79.6401 86.3268 76.8143 86.8044 75.4611L86.685 70.3269Z" fill="#3E3E40"/>
<path d="M87.1704 55.5212L86.6847 70.3268L83.1027 72.2372C82.7047 60.6156 81.8213 37.0858 81.9168 35.9395C82.0123 34.7933 82.9914 33.9495 83.469 33.6709C84.5197 33.9575 84.7824 37.3723 84.7824 39.0439L83.8272 39.9991L84.7824 51.8198L87.1704 55.5212Z" fill="#323233"/>
<path d="M113.669 33.6709V22.2085C110.708 24.9994 106.386 23.3714 104.595 22.2085V33.6709H113.669Z" fill="#494949"/>
<path d="M113.431 49.3125L114.266 43.7007L104.237 43.9395L105.192 49.3125C105.431 50.1483 106.649 51.796 109.61 51.7005C112.571 51.605 113.391 50.0687 113.431 49.3125Z" fill="#494949"/>
<path d="M109.371 33.4322C113.287 33.3367 113.669 31.88 113.669 31.1636C114.433 31.2591 114.585 31.7606 114.625 31.9994L114.266 43.7006C110.732 45.611 106.107 44.6558 104.237 43.9394L103.759 31.9994C103.878 31.1636 104.316 31.0442 104.595 31.0442C104.515 31.88 105.455 33.5277 109.371 33.4322Z" fill="#323233"/>
<ellipse rx="4.53722" ry="2.02981" transform="matrix(-1 0 0 1 109.132 22.0891)" fill="#333333"/>
<path d="M107.945 20.6712L108.664 18.3172C108.664 18.3172 107.115 17.1583 106.029 16.2225C99.6957 10.7647 91.7008 3.30781 91.7008 3.30781C91.7008 3.30781 89.8615 6.58114 89.466 7.1827C89.0705 7.78426 86.3047 12.7718 86.3047 12.7718C86.3047 12.7718 101.061 17.6636 105.091 19.389C106.192 19.8599 107.945 20.6712 107.945 20.6712Z" fill="#707070"/>
<path d="M107.361 16.8402L107.221 22.1044C109.237 23.1573 110.768 22.5431 111.281 22.1044V16.7086C109.489 14.4977 107.921 15.8751 107.361 16.8402Z" fill="black"/>
<path d="M108.654 20.7471L110.24 18.8647C110.24 18.8647 112.055 19.5359 113.43 19.9394C121.453 22.2923 132.057 24.9542 132.057 24.9542C132.057 24.9542 130.307 28.2765 130.017 28.9354C129.727 29.5942 127.042 34.6256 127.042 34.6256C127.042 34.6256 114.919 24.8938 111.281 22.4468C110.288 21.7789 108.654 20.7471 108.654 20.7471Z" fill="#707070"/>
<path d="M114.52 64.3131L114.047 61.8977C114.047 61.8977 115.707 60.904 116.883 60.0848C123.744 55.3065 132.463 48.7103 132.463 48.7103C132.463 48.7103 133.956 52.1552 134.288 52.7942C134.619 53.4332 136.858 58.6785 136.858 58.6785C136.858 58.6785 121.678 62.0287 117.491 63.3309C116.348 63.6863 114.52 64.3131 114.52 64.3131Z" fill="#707070"/>
<path d="M111.899 60.7797L111.759 66.0439C113.775 67.0967 115.306 66.4826 115.819 66.0439V60.6481C114.027 58.4371 112.459 59.8146 111.899 60.7797Z" fill="black"/>
<path d="M114.016 64.8182L112.632 62.7828C112.632 62.7828 110.758 63.2641 109.348 63.5241C101.126 65.0404 90.3049 66.599 90.3049 66.599C90.3049 66.599 91.7035 70.0834 91.9245 70.7686C92.1456 71.4537 94.2997 76.7344 94.2997 76.7344C94.2997 76.7344 107.358 68.2994 111.228 66.239C112.285 65.6767 114.016 64.8182 114.016 64.8182Z" fill="#707070"/>
<path d="M30.9395 20.3732L30.4662 17.9578C30.4662 17.9578 32.1263 16.9641 33.3025 16.1448C40.1632 11.3665 48.8818 4.77034 48.8818 4.77034C48.8818 4.77034 50.3751 8.2153 50.7068 8.8543C51.0384 9.49331 53.2771 14.7386 53.2771 14.7386C53.2771 14.7386 38.0968 18.0887 33.91 19.3909C32.7674 19.7463 30.9395 20.3732 30.9395 20.3732Z" fill="#707070"/>
<path d="M28.3187 16.8402L28.1787 22.1044C30.1945 23.1573 31.725 22.5431 32.2383 22.1044V16.7086C30.4465 14.4977 28.8786 15.8751 28.3187 16.8402Z" fill="black"/>
<path d="M30.4354 20.8785L29.0513 18.8432C29.0513 18.8432 27.1773 19.3244 25.7676 19.5844C17.5456 21.1007 6.72456 22.6593 6.72456 22.6593C6.72456 22.6593 8.12319 26.1437 8.34421 26.8289C8.56524 27.514 10.7194 32.7947 10.7194 32.7947C10.7194 32.7947 23.7775 24.3597 27.6479 22.2993C28.7042 21.737 30.4354 20.8785 30.4354 20.8785Z" fill="#707070"/>
<path d="M30.925 44.775L52.1783 54.3271L54.9245 51.9391L55.8797 39.999V34.3872L35.4623 35.4618L30.925 39.1632V44.775Z" fill="#323233"/>
<path d="M24.3646 64.8492L25.0836 62.4952C25.0836 62.4952 23.5343 61.3362 22.4484 60.4005C16.1149 54.9427 8.11999 47.4858 8.11999 47.4858C8.11999 47.4858 6.28068 50.7591 5.88519 51.3607C5.4897 51.9622 2.72393 56.9498 2.72393 56.9498C2.72393 56.9498 17.4798 61.8416 21.5107 63.567C22.6108 64.0379 24.3646 64.8492 24.3646 64.8492Z" fill="#707070"/>
<path d="M23.7811 61.0187L23.6411 66.2829C25.6569 67.3357 27.1874 66.7216 27.7007 66.2829V60.8871C25.9089 58.6761 24.341 60.0536 23.7811 61.0187Z" fill="black"/>
<path d="M25.0743 64.9256L26.6602 63.0432C26.6602 63.0432 28.4748 63.7144 29.8503 64.1178C37.8731 66.4708 48.4768 69.1326 48.4768 69.1326C48.4768 69.1326 46.7276 72.455 46.4374 73.1138C46.1472 73.7727 43.462 78.8041 43.462 78.8041C43.462 78.8041 31.3394 69.0723 27.7011 66.6252C26.7082 65.9574 25.0743 64.9256 25.0743 64.9256Z" fill="#707070"/>
<path d="M108.535 44.775L87.2816 54.3271L84.5354 51.9391L83.5802 39.999V34.3872L103.998 35.4618L108.535 39.1632V44.775Z" fill="#323233"/>
</g>
<defs>
<clipPath id="clip0_44_496">
<rect width="140" height="100" fill="white"/>
</clipPath>
</defs>
</svg>
