<svg width="140" height="100" viewBox="0 0 140 100" fill="none" xmlns="http://www.w3.org/2000/svg">
<g clip-path="url(#clip0_44_495)">
<path d="M30.365 73.7605L55.5893 51.4053L53.1984 75.1951L30.8432 85.5956C30.8432 83.3242 31.0823 77.7056 31.0823 76.3905C31.0823 75.6733 30.7236 75.3146 30.365 75.3146V73.7605Z" fill="#323233"/>
<path d="M56.665 79.9767V70.5325H83.2044L83.324 80.2158C82.2719 81.5547 78.821 82.2879 77.2271 82.4872C73.9196 82.527 66.6113 82.5828 63.8378 82.4872C61.0644 82.3915 57.9004 80.7737 56.665 79.9767Z" fill="#202020"/>
<path d="M83.2045 70.5325L56.6651 70.8911L56.426 33.7121C56.426 33.7121 64.579 32.9744 69.8153 32.9948C75.1008 33.0154 83.5631 33.7121 83.5631 33.7121L83.2045 70.5325Z" fill="#202020"/>
<path d="M52.6006 55.5892L52.9592 70.8912L56.7847 72.3257C57.1832 60.6899 57.9563 37.1312 57.8606 35.9835C57.765 34.8359 56.7847 33.9911 56.3065 33.7122C55.2545 33.9991 54.9915 37.4181 54.9915 39.0918L55.9479 40.0481L54.9915 51.8833L52.6006 55.5892Z" fill="#312F2F"/>
<path d="M52.9592 70.8911L56.7847 72.3257L56.6652 79.9767C54.9437 79.4985 53.557 76.6692 53.0788 75.3143L52.9592 70.8911Z" fill="#3E3E40"/>
<path d="M21.2793 77.9445V66.468C24.2441 69.2623 28.5716 67.6323 30.3648 66.468V77.9445H21.2793Z" fill="#494949"/>
<path d="M21.5185 93.605L20.6816 87.9863L30.7236 88.2254L29.7672 93.605C29.5281 94.4419 28.3087 96.0916 25.344 95.996C22.3792 95.9003 21.5583 94.3622 21.5185 93.605Z" fill="#494949"/>
<path d="M25.583 77.7054C21.6619 77.6098 21.2794 76.1513 21.2794 75.434C20.5143 75.5296 20.3628 76.0317 20.323 76.2708L20.6816 87.9864C24.2202 89.8992 28.8507 88.9428 30.7236 88.2255L31.2017 76.2708C31.0822 75.434 30.6439 75.3145 30.3649 75.3145C30.4446 76.1513 29.5042 77.801 25.583 77.7054Z" fill="#2C2C2C"/>
<ellipse cx="25.8221" cy="66.3485" rx="4.54278" ry="2.03229" fill="#333333"/>
<path d="M109.385 73.7605L84.1611 51.4053L86.5521 75.1951L108.907 85.5956C108.907 83.3242 108.549 77.586 108.549 76.271C108.549 75.5537 109.027 75.3146 109.385 75.3146V73.7605Z" fill="#323233"/>
<path d="M118.351 77.9445V66.468C115.387 69.2623 111.059 67.6323 109.266 66.468V77.9445H118.351Z" fill="#494949"/>
<path d="M118.112 93.605L118.949 87.9863L108.907 88.2254L109.863 93.605C110.103 94.4419 111.322 96.0916 114.287 95.996C117.251 95.9003 118.072 94.3622 118.112 93.605Z" fill="#494949"/>
<path d="M114.048 77.7054C117.969 77.6098 118.351 76.1513 118.351 75.434C119.116 75.5296 119.268 76.0317 119.308 76.2708L118.949 87.9864C115.41 89.8992 110.78 88.9428 108.907 88.2255L108.429 76.2708C108.548 75.434 108.987 75.3145 109.266 75.3145C109.186 76.1513 110.126 77.801 114.048 77.7054Z" fill="#2C2C2C"/>
<ellipse rx="4.54278" ry="2.03229" transform="matrix(-1 0 0 1 113.809 66.3485)" fill="#333333"/>
<path d="M25.822 33.7123V22.2358C28.7868 25.0301 33.1144 23.4001 34.9076 22.2358V33.7123H25.822Z" fill="#494949"/>
<path d="M26.0609 49.3728L25.2241 43.7542L35.266 43.9932L34.3097 49.3728C34.0706 50.2097 32.8512 51.8594 29.8864 51.7638C26.9217 51.6681 26.1008 50.13 26.0609 49.3728Z" fill="#494949"/>
<path d="M30.1258 33.4732C26.2046 33.3776 25.8221 31.9191 25.8221 31.2018C25.057 31.2975 24.9056 31.7996 24.8657 32.0386L25.2244 43.7542C28.7629 45.667 33.3934 44.7106 35.2663 43.9933L35.7445 32.0386C35.6249 31.2018 35.1866 31.0823 34.9076 31.0823C34.9873 31.9191 34.0469 33.5688 30.1258 33.4732Z" fill="#2C2C2C"/>
<ellipse cx="30.3648" cy="22.116" rx="4.54278" ry="2.03229" fill="#333333"/>
<path d="M86.7909 70.4131L83.2045 72.3258L83.324 80.2159C85.0455 79.7377 86.4322 76.9084 86.9104 75.5536L86.7909 70.4131Z" fill="#3E3E40"/>
<path d="M87.2771 55.5892L86.7908 70.413L83.2044 72.3257C82.8059 60.6899 81.9214 37.1312 82.017 35.9835C82.1127 34.8359 83.093 33.9911 83.5712 33.7122C84.6232 33.9991 84.8862 37.4181 84.8862 39.0918L83.9298 40.0481L84.8862 51.8833L87.2771 55.5892Z" fill="#312F2F"/>
<path d="M113.809 33.7123V22.2358C110.844 25.0301 106.516 23.4001 104.723 22.2358V33.7123H113.809Z" fill="#494949"/>
<path d="M113.569 49.3728L114.406 43.7542L104.364 43.9932L105.32 49.3728C105.56 50.2097 106.779 51.8594 109.744 51.7638C112.708 51.6681 113.529 50.13 113.569 49.3728Z" fill="#494949"/>
<path d="M109.505 33.4732C113.426 33.3776 113.808 31.9191 113.808 31.2018C114.573 31.2975 114.725 31.7996 114.765 32.0386L114.406 43.7542C110.867 45.667 106.237 44.7106 104.364 43.9933L103.886 32.0386C104.005 31.2018 104.444 31.0823 104.723 31.0823C104.643 31.9191 105.583 33.5688 109.505 33.4732Z" fill="#2C2C2C"/>
<ellipse rx="4.54278" ry="2.03229" transform="matrix(-1 0 0 1 109.266 22.116)" fill="#333333"/>
<path d="M108.077 20.6966L108.797 18.3396C108.797 18.3396 107.246 17.1793 106.159 16.2424C99.8176 10.7779 91.8129 3.31186 91.8129 3.31186C91.8129 3.31186 89.9714 6.5892 89.5754 7.1915C89.1794 7.7938 86.4103 12.7875 86.4103 12.7875C86.4103 12.7875 101.184 17.6852 105.22 19.4128C106.321 19.8842 108.077 20.6966 108.077 20.6966Z" fill="#B4B4B4"/>
<path d="M107.493 16.8611L107.353 22.1318C109.371 23.1859 110.904 22.571 111.418 22.1318V16.7294C109.624 14.5157 108.054 15.8949 107.493 16.8611Z" fill="black"/>
<path d="M108.788 20.7731L110.375 18.8884C110.375 18.8884 112.192 19.5604 113.569 19.9643C121.602 22.3202 132.219 24.9853 132.219 24.9853C132.219 24.9853 130.467 28.3118 130.177 28.9714C129.886 29.631 127.198 34.6686 127.198 34.6686C127.198 34.6686 115.06 24.9249 111.418 22.4748C110.423 21.8062 108.788 20.7731 108.788 20.7731Z" fill="#B4B4B4"/>
<path d="M114.66 64.3918L114.186 61.9735C114.186 61.9735 115.848 60.9786 117.026 60.1583C123.895 55.3741 132.624 48.7699 132.624 48.7699C132.624 48.7699 134.12 52.2191 134.452 52.8589C134.784 53.4986 137.025 58.7504 137.025 58.7504C137.025 58.7504 121.826 62.1046 117.634 63.4084C116.49 63.7642 114.66 64.3918 114.66 64.3918Z" fill="#B4B4B4"/>
<path d="M112.036 60.8545L111.896 66.1252C113.914 67.1793 115.447 66.5644 115.96 66.1252V60.7228C114.166 58.5091 112.597 59.8883 112.036 60.8545Z" fill="black"/>
<path d="M114.156 64.8971L112.77 62.8593C112.77 62.8593 110.894 63.3411 109.482 63.6014C101.25 65.1197 90.4157 66.6801 90.4157 66.6801C90.4157 66.6801 91.816 70.1689 92.0373 70.8548C92.2586 71.5408 94.4154 76.8279 94.4154 76.8279C94.4154 76.8279 107.49 68.3826 111.365 66.3197C112.422 65.7567 114.156 64.8971 114.156 64.8971Z" fill="#B4B4B4"/>
<path d="M30.9773 20.3987L30.5034 17.9803C30.5034 17.9803 32.1655 16.9854 33.3432 16.1652C40.2123 11.381 48.9416 4.77672 48.9416 4.77672C48.9416 4.77672 50.4367 8.2259 50.7688 8.86569C51.1008 9.50548 53.3423 14.7572 53.3423 14.7572C53.3423 14.7572 38.1434 18.1114 33.9515 19.4152C32.8074 19.7711 30.9773 20.3987 30.9773 20.3987Z" fill="#B4B4B4"/>
<path d="M28.3532 16.8611L28.213 22.1318C30.2313 23.1859 31.7637 22.571 32.2776 22.1318V16.7294C30.4836 14.5157 28.9138 15.8949 28.3532 16.8611Z" fill="black"/>
<path d="M30.4727 20.9042L29.0869 18.8664C29.0869 18.8664 27.2106 19.3482 25.7992 19.6085C17.5671 21.1267 6.73283 22.6872 6.73283 22.6872C6.73283 22.6872 8.13317 26.1759 8.35446 26.8619C8.57576 27.5479 10.7325 32.835 10.7325 32.835C10.7325 32.835 23.8067 24.3897 27.6818 22.3268C28.7394 21.7638 30.4727 20.9042 30.4727 20.9042Z" fill="#B4B4B4"/>
<path d="M30.9624 44.8303L52.2417 54.394L54.9913 52.0031L55.9477 40.0484V34.4297L35.5052 35.5056L30.9624 39.2116V44.8303Z" fill="#323233"/>
<path d="M24.3946 64.9287L25.1144 62.5718C25.1144 62.5718 23.5633 61.4114 22.4761 60.4746C16.1347 55.0101 8.13008 47.544 8.13008 47.544C8.13008 47.544 6.28852 50.8214 5.89255 51.4237C5.49657 52.026 2.72741 57.0196 2.72741 57.0196C2.72741 57.0196 17.5014 61.9174 21.5372 63.645C22.6386 64.1164 24.3946 64.9287 24.3946 64.9287Z" fill="#B4B4B4"/>
<path d="M23.8104 61.0933L23.6703 66.364C25.6886 67.4181 27.2209 66.8032 27.7349 66.364V60.9616C25.9408 58.7479 24.3711 60.127 23.8104 61.0933Z" fill="black"/>
<path d="M25.1047 65.0053L26.6926 63.1206C26.6926 63.1206 28.5094 63.7926 29.8866 64.1965C37.9192 66.5524 48.5359 69.2175 48.5359 69.2175C48.5359 69.2175 46.7846 72.5439 46.494 73.2036C46.2034 73.8632 43.5149 78.9008 43.5149 78.9008C43.5149 78.9008 31.3775 69.1571 27.7348 66.707C26.7406 66.0383 25.1047 65.0053 25.1047 65.0053Z" fill="#B4B4B4"/>
<path d="M108.668 44.8303L87.3884 54.394L84.6388 52.0031L83.6825 40.0484V34.4297L104.125 35.5056L108.668 39.2116V44.8303Z" fill="#323233"/>
</g>
<defs>
<clipPath id="clip0_44_495">
<rect width="140" height="100" fill="white"/>
</clipPath>
</defs>
</svg>
