<svg width="36" height="36" viewBox="0 0 36 36" fill="none" xmlns="http://www.w3.org/2000/svg">
<g clip-path="url(#clip0_750_20897)">
<path d="M0.255122 32.475L15.7501 1.35754C15.9538 0.950076 16.2669 0.607384 16.6544 0.367873C17.0418 0.128361 17.4883 0.00149536 17.9439 0.00149536C18.3994 0.00149536 18.8459 0.128361 19.2334 0.367873C19.6209 0.607384 19.934 0.950076 20.1376 1.35754L35.7376 32.4675C35.925 32.8401 36.0136 33.2545 35.995 33.6711C35.9765 34.0877 35.8513 34.4925 35.6316 34.8469C35.4119 35.2013 35.1049 35.4935 34.74 35.6954C34.3752 35.8972 33.9646 36.0021 33.5476 36H2.45262C2.03679 36.0007 1.62766 35.8953 1.26391 35.6938C0.900156 35.4923 0.593805 35.2014 0.37382 34.8485C0.153835 34.4956 0.0274841 34.0925 0.00671429 33.6772C-0.0140556 33.2619 0.0714416 32.8481 0.255122 32.475Z" fill="url(#paint0_linear_750_20897)"/>
<path d="M21 12H16.5V25.5H21V12Z" fill="#FFAA00"/>
<path d="M21 28.5H16.5V33H21V28.5Z" fill="#FFAA00"/>
<path d="M20.25 11.25H15.75V24.75H20.25V11.25Z" fill="white"/>
<path d="M20.25 27.75H15.75V32.25H20.25V27.75Z" fill="white"/>
</g>
<defs>
<linearGradient id="paint0_linear_750_20897" x1="18.0001" y1="3.87102e-05" x2="18.0001" y2="36" gradientUnits="userSpaceOnUse">
<stop stop-color="#FFBC00"/>
<stop offset="1" stop-color="#FFAA00"/>
</linearGradient>
<clipPath id="clip0_750_20897">
<rect width="36" height="36" fill="white"/>
</clipPath>
</defs>
</svg>
