<svg width="16" height="16" viewBox="0 0 16 16" fill="none" xmlns="http://www.w3.org/2000/svg">
<g clip-path="url(#clip0_751_18903)">
<path d="M0.150086 14L6.78009 0.749998C6.89492 0.525229 7.06962 0.336553 7.2849 0.204789C7.50018 0.0730249 7.74768 0.0032959 8.00009 0.0032959C8.25249 0.0032959 8.49999 0.0730249 8.71527 0.204789C8.93055 0.336553 9.10525 0.525229 9.22009 0.749998L15.8501 14C15.9642 14.2076 16.0216 14.4415 16.0167 14.6783C16.0118 14.9151 15.9447 15.1464 15.8221 15.3491C15.6995 15.5517 15.5257 15.7186 15.3182 15.8328C15.1108 15.9471 14.8769 16.0047 14.6401 16H1.36009C1.12328 16.0047 0.889402 15.9471 0.68193 15.8328C0.474459 15.7186 0.300698 15.5517 0.178095 15.3491C0.0554914 15.1464 -0.0116385 14.9151 -0.0165548 14.6783C-0.0214711 14.4415 0.0359994 14.2076 0.150086 14Z" fill="url(#paint0_linear_751_18903)"/>
<path d="M9 5H7V11H9V5Z" fill="white"/>
<path d="M9 12H7V14H9V12Z" fill="white"/>
</g>
<defs>
<linearGradient id="paint0_linear_751_18903" x1="8.60376e-05" y1="8" x2="16.0001" y2="8" gradientUnits="userSpaceOnUse">
<stop stop-color="#FFBC00"/>
<stop offset="1" stop-color="#FFAA00"/>
</linearGradient>
<clipPath id="clip0_751_18903">
<rect width="16" height="16" fill="white"/>
</clipPath>
</defs>
</svg>
